<mxfile host="app.diagrams.net" modified="2023-08-06T10:28:10.039Z" agent="Mozilla/5.0 (Macintosh; Intel Mac OS X 10_15_7) AppleWebKit/605.1.15 (KHTML, like Gecko) Version/16.2 Safari/605.1.15" etag="zosQ8ckiSb6PMjA6zYki" version="21.6.6" type="github">
  <diagram name="Page-1" id="YrfvFDiIP2hj_ED3L4dZ">
    <mxGraphModel dx="954" dy="1047" grid="1" gridSize="10" guides="1" tooltips="1" connect="1" arrows="1" fold="1" page="0" pageScale="1" pageWidth="827" pageHeight="1169" background="#050505" math="0" shadow="0">
      <root>
        <mxCell id="0" />
        <mxCell id="1" parent="0" />
        <mxCell id="s8pOEY3R6oXoChje5kIm-3" value="&lt;b&gt;&lt;font style=&quot;font-size: 16px;&quot;&gt;REMOVING NOISE&lt;/font&gt;&lt;/b&gt;" style="rounded=1;whiteSpace=wrap;html=1;dashed=1;dashPattern=1 4;strokeWidth=5;perimeterSpacing=2;shadow=1;fontFamily=Times New Roman;labelBackgroundColor=none;fillStyle=solid;fillColor=#E1D5E7;strokeColor=none;" vertex="1" parent="1">
          <mxGeometry x="280" y="-80" width="240" height="40" as="geometry" />
        </mxCell>
        <mxCell id="s8pOEY3R6oXoChje5kIm-12" value="" style="edgeStyle=orthogonalEdgeStyle;rounded=0;orthogonalLoop=1;jettySize=auto;html=1;" edge="1" parent="1" source="s8pOEY3R6oXoChje5kIm-15" target="s8pOEY3R6oXoChje5kIm-8">
          <mxGeometry relative="1" as="geometry" />
        </mxCell>
        <mxCell id="s8pOEY3R6oXoChje5kIm-6" value="&lt;b&gt;&lt;font style=&quot;font-size: 16px;&quot;&gt;CASE CONVERSION&lt;br&gt;&lt;/font&gt;&lt;/b&gt;" style="rounded=1;whiteSpace=wrap;html=1;dashed=1;dashPattern=1 4;strokeWidth=5;perimeterSpacing=2;shadow=1;fontFamily=Times New Roman;labelBackgroundColor=none;fillStyle=solid;fillColor=#E1D5E7;strokeColor=none;" vertex="1" parent="1">
          <mxGeometry x="280" width="240" height="40" as="geometry" />
        </mxCell>
        <mxCell id="s8pOEY3R6oXoChje5kIm-8" value="&lt;b&gt;&lt;font style=&quot;font-size: 16px;&quot;&gt;REMOVING STOP WORDS&lt;br&gt;&lt;/font&gt;&lt;/b&gt;" style="rounded=1;whiteSpace=wrap;html=1;dashed=1;dashPattern=1 4;strokeWidth=5;perimeterSpacing=2;shadow=1;fontFamily=Times New Roman;labelBackgroundColor=none;fillStyle=solid;fillColor=#E1D5E7;strokeColor=none;" vertex="1" parent="1">
          <mxGeometry x="280" y="80" width="240" height="40" as="geometry" />
        </mxCell>
        <mxCell id="s8pOEY3R6oXoChje5kIm-9" value="&lt;b&gt;&lt;font style=&quot;font-size: 16px;&quot;&gt;TOKENIZATION&lt;br&gt;&lt;/font&gt;&lt;/b&gt;" style="rounded=1;whiteSpace=wrap;html=1;dashed=1;dashPattern=1 4;strokeWidth=5;perimeterSpacing=2;shadow=1;fontFamily=Times New Roman;labelBackgroundColor=none;fillStyle=solid;fillColor=#E1D5E7;strokeColor=none;" vertex="1" parent="1">
          <mxGeometry x="280" y="160" width="240" height="40" as="geometry" />
        </mxCell>
        <mxCell id="s8pOEY3R6oXoChje5kIm-10" value="&lt;b&gt;&lt;font style=&quot;font-size: 16px;&quot;&gt;LEMATIZATION&lt;br&gt;&lt;/font&gt;&lt;/b&gt;" style="rounded=1;whiteSpace=wrap;html=1;dashed=1;dashPattern=1 4;strokeWidth=5;perimeterSpacing=2;shadow=1;fontFamily=Times New Roman;labelBackgroundColor=none;fillStyle=solid;fillColor=#E1D5E7;strokeColor=none;" vertex="1" parent="1">
          <mxGeometry x="280" y="240" width="240" height="40" as="geometry" />
        </mxCell>
        <mxCell id="s8pOEY3R6oXoChje5kIm-14" value="" style="shape=singleArrow;direction=south;whiteSpace=wrap;html=1;strokeColor=default;arrowWidth=0.3;noLabel=1;" vertex="1" parent="1">
          <mxGeometry x="390" y="-40" width="20" height="40" as="geometry" />
        </mxCell>
        <mxCell id="s8pOEY3R6oXoChje5kIm-16" value="" style="edgeStyle=orthogonalEdgeStyle;rounded=0;orthogonalLoop=1;jettySize=auto;html=1;" edge="1" parent="1" source="s8pOEY3R6oXoChje5kIm-6" target="s8pOEY3R6oXoChje5kIm-15">
          <mxGeometry relative="1" as="geometry">
            <mxPoint x="400" y="42" as="sourcePoint" />
            <mxPoint x="400" y="78" as="targetPoint" />
            <Array as="points">
              <mxPoint x="400" y="60" />
            </Array>
          </mxGeometry>
        </mxCell>
        <mxCell id="s8pOEY3R6oXoChje5kIm-15" value="" style="shape=singleArrow;direction=south;whiteSpace=wrap;html=1;strokeColor=default;arrowWidth=0.3;noLabel=1;" vertex="1" parent="1">
          <mxGeometry x="390" y="40" width="20" height="40" as="geometry" />
        </mxCell>
        <mxCell id="s8pOEY3R6oXoChje5kIm-17" value="" style="shape=singleArrow;direction=south;whiteSpace=wrap;html=1;strokeColor=default;arrowWidth=0.3;noLabel=1;" vertex="1" parent="1">
          <mxGeometry x="390" y="120" width="20" height="40" as="geometry" />
        </mxCell>
        <mxCell id="s8pOEY3R6oXoChje5kIm-19" value="" style="shape=singleArrow;direction=south;whiteSpace=wrap;html=1;strokeColor=default;arrowWidth=0.3;noLabel=1;" vertex="1" parent="1">
          <mxGeometry x="390" y="200" width="20" height="40" as="geometry" />
        </mxCell>
      </root>
    </mxGraphModel>
  </diagram>
</mxfile>
